<?xml version="1.0" encoding="UTF-8"?>
<!DOCTYPE svg PUBLIC "-//W3C//DTD SVG 1.1//EN" "http://www.w3.org/Graphics/SVG/1.1/DTD/svg11.dtd">
<!-- Creator: CorelDRAW X7 -->
<svg xmlns="http://www.w3.org/2000/svg" xml:space="preserve" width="60mm" height="34mm" version="1.1" style="shape-rendering:geometricPrecision; text-rendering:geometricPrecision; image-rendering:optimizeQuality; fill-rule:evenodd; clip-rule:evenodd"
viewBox="0 0 6000 3400"
 xmlns:xlink="http://www.w3.org/1999/xlink">
 <defs>
  <style type="text/css">
   <![CDATA[
    .fil0 {fill:#ED3237}
    .fil1 {fill:#3E4095}
   ]]>
  </style>
 </defs>
 <g id="Capa_x0020_1">
  <metadata id="CorelCorpID_0Corel-Layer"/>
  <g id="_628602352">
   <path class="fil0" d="M-30 3367l358 0 971 -2287 -376 0 -488 1271 215 -1271 -366 0 -314 2287zm1460 -1616l-344 0 -476 1616 345 0 475 -1616zm-364 1616l315 0 193 -645 29 645 269 0 476 -1616 -325 0 -184 625 -11 -625 -287 0 -475 1616zm1737 -1616l-344 0 -476 1616 345 0 475 -1616zm900 0l-620 0c-109,0 -178,32 -213,152l-345 1168c-62,211 65,296 216,296l438 0 120 -307 -371 0c-47,0 -65,-20 -49,-71l273 -929c11,-40 27,-49 62,-49l109 0 -89 307 325 -76 144 -491zm449 0l-345 0 -475 1616 344 0 476 -1616zm409 260l84 0c31,0 40,18 33,43l-295 1004c-7,24 -27,40 -54,40l-86 0c-27,0 -38,-16 -31,-40l297 -1007c7,-22 18,-40 52,-40zm-136 -260c-109,0 -184,65 -209,158l-364 1238c-40,137 46,220 160,220l397 0c112,0 220,-38 260,-171l371 -1260c27,-96 -26,-185 -131,-185l-484 0z"/>
   <path class="fil1" d="M2743 1183l-297 222 -9 30 230 0 76 -252zm-11 -30l-147 -222 -37 121 -238 0 397 -542 -109 378 160 245 322 -1100 -290 0 -1214 1650 271 0 327 -451 323 0 -37 123 272 -202zm416 41l226 -309 -162 550 206 0 293 -990 -213 0 -232 346 -35 -346 -204 0 -292 990 206 0 163 -550 44 309zm760 -86l-102 0 180 -448 -78 448zm-229 327l71 -178 135 0 -31 178 204 0 135 -990 -293 0 -435 990 214 0zm940 -831c32,0 34,15 26,44l-173 588c-7,24 -16,34 -49,34l-65 0 196 -666 65 0zm-515 831l315 0c142,0 200,-16 234,-133l220 -746c16,-55 -11,-111 -85,-111l-392 0 -292 990zm1052 -831l52 0c19,0 24,11 20,26l-181 616c-4,15 -16,24 -33,24l-53 0c-16,0 -23,-9 -19,-24l183 -617c4,-14 11,-25 31,-25zm-83 -159c-67,0 -113,39 -128,97l-223 758c-25,85 28,135 98,135l244 0c68,0 134,-23 159,-105l227 -772c17,-59 -16,-113 -80,-113l-297 0zm516 568l69 0c24,0 27,18 21,34l-114 388 206 0 106 -361c22,-71 -8,-103 -40,-109 51,0 79,-30 88,-58l99 -337c19,-65 -9,-125 -98,-125l-375 0 -291 990 205 0 124 -422zm43 -146l77 -263 64 0c32,0 40,15 32,41l-55 184c-9,30 -27,38 -47,38l-71 0z"/>
  </g>
 </g>
</svg>
